# xmcd
#
# Track frame offsets:
#	150
#	18052
#	32720
#	46850
#	59630
#	72262
#	89935
#	103840
#	117682
#	131300
#	144270
#	154262
#
# Disc length: 2364 seconds
#
# Revision: 0
# Processed by: cddbd v1.4PL0 Copyright (c) Steve Scherf et al.
# Submitted via: audiograbber 1.81.00
#
DISCID=aa093a0c
DTITLE=GABRIELLA FERRI - I Grandi Successi Originali CD 1
DYEAR=1900
DGENRE=POP
TTITLE0=Se Tu Ragazzo Mio
TTITLE1=Ti Regalo Gli Occhi Miei
TTITLE2=È Scesa Ormai la Sera
TTITLE3=Affaccete Nunziata
TTITLE4=Tanto pe' Cantá
TTITLE5=Alla Renella
TTITLE6=Chitarra Romana
TTITLE7=Ciccio Formaggio
TTITLE8=La Società dei Magnaccioni
TTITLE9=Quanto Sei Bella Roma
TTITLE10=Sora Menica
TTITLE11=Barcarolo Romano
EXTD=
EXTT0=
EXTT1=
EXTT2=
EXTT3=
EXTT4=
EXTT5=
EXTT6=
EXTT7=
EXTT8=
EXTT9=
EXTT10=
EXTT11=
PLAYORDER=
